<svg width="86" height="55" viewBox="0 0 86 55" fill="none" xmlns="http://www.w3.org/2000/svg">
<circle cx="63.5" cy="22.5" r="22.5" fill="#53C1FF"/>
<path d="M9.39749 51.1924C9.47153 51.5046 9.60796 51.7986 9.79858 52.0567C9.98919 52.3148 10.2301 52.5317 10.5067 52.6943C10.7833 52.8568 11.0899 52.9618 11.4081 53.0028C11.7264 53.0438 12.0496 53.02 12.3584 52.9328C26.5161 49.0237 41.4683 49.0223 55.6267 52.9287C55.9354 53.0158 56.2585 53.0395 56.5766 52.9985C56.8947 52.9576 57.2013 52.8527 57.4778 52.6902C57.7543 52.5277 57.9951 52.3109 58.1857 52.053C58.3763 51.795 58.5128 51.5012 58.587 51.1892L66.1539 19.0326C66.2552 18.6021 66.2343 18.1519 66.0936 17.7326C65.9528 17.3134 65.6978 16.9418 65.3572 16.6596C65.0167 16.3775 64.6041 16.1961 64.166 16.1358C63.7279 16.0754 63.2816 16.1386 62.8775 16.3183L47.8604 22.9925C47.3182 23.2335 46.7053 23.2628 46.1426 23.0746C45.5798 22.8864 45.1079 22.4943 44.8197 21.9756L36.076 6.23698C35.8704 5.86673 35.5694 5.55823 35.2044 5.34344C34.8393 5.12865 34.4235 5.01538 33.9999 5.01538C33.5764 5.01538 33.1605 5.12865 32.7955 5.34344C32.4305 5.55823 32.1295 5.86673 31.9238 6.23698L23.1801 21.9756C22.892 22.4943 22.42 22.8864 21.8573 23.0746C21.2945 23.2628 20.6817 23.2335 20.1394 22.9925L5.1201 16.3173C4.71605 16.1377 4.26989 16.0745 3.83185 16.1347C3.39382 16.195 2.9813 16.3763 2.64075 16.6583C2.3002 16.9403 2.04513 17.3118 1.90427 17.7309C1.7634 18.15 1.74234 18.6002 1.84344 19.0306L9.39749 51.1924Z" stroke="black" stroke-width="2" stroke-linecap="round" stroke-linejoin="round"/>
<path d="M24.5 40.9984C30.8159 40.3339 37.1841 40.3339 43.5 40.9984" stroke="black" stroke-width="2" stroke-linecap="round" stroke-linejoin="round"/>
</svg>
