<svg width="170" height="96" viewBox="0 0 170 96" fill="none" xmlns="http://www.w3.org/2000/svg">
<g clip-path="url(#clip0_3_1558)">
<g filter="url(#filter0_d_3_1558)">
<rect width="170" height="96" rx="16" fill="white"/>
</g>
<g clip-path="url(#clip1_3_1558)">
<path fill-rule="evenodd" clip-rule="evenodd" d="M97.8991 57.025C91.9136 61.5733 83.238 64 75.7684 64C65.2949 64 55.8661 60.0064 48.7328 53.3642C48.1724 52.8418 48.6745 52.13 49.347 52.5368C57.0453 57.1544 66.5638 59.9324 76.3961 59.9324C83.0273 59.9324 90.322 58.518 97.0293 55.5828C98.0426 55.1391 98.89 56.2669 97.8991 57.025Z" fill="#FF9900"/>
<path fill-rule="evenodd" clip-rule="evenodd" d="M100.388 54.0899C99.6255 53.0822 95.3303 53.6138 93.4024 53.8495C92.815 53.9235 92.7254 53.3965 93.2544 53.0175C96.6753 50.5353 102.289 51.2518 102.943 52.0838C103.598 52.9204 102.773 58.7214 99.5582 61.4901C99.065 61.9154 98.5943 61.6889 98.814 61.125C99.5358 59.2668 101.154 55.1021 100.388 54.0899Z" fill="#FF9900"/>
<path fill-rule="evenodd" clip-rule="evenodd" d="M93.5367 35.4945V33.0816C93.5367 32.7165 93.8057 32.4715 94.1286 32.4715H104.607C104.943 32.4715 105.212 32.7211 105.212 33.0816V35.1478C105.207 35.4945 104.925 35.9474 104.423 36.6639L98.9932 44.6558C101.011 44.605 103.14 44.9146 104.97 45.9778C105.382 46.2181 105.494 46.5694 105.526 46.9161V49.4907C105.526 49.842 105.149 50.2534 104.755 50.0407C101.531 48.2982 97.2491 48.1086 93.6847 50.0592C93.3215 50.2626 92.9404 49.8559 92.9404 49.5046V47.0594C92.9404 46.6665 92.9449 45.9963 93.326 45.4L99.6164 36.1H94.142C93.8057 36.1 93.5367 35.855 93.5367 35.4945Z" fill="black"/>
<path fill-rule="evenodd" clip-rule="evenodd" d="M55.3146 50.5492H52.1268C51.8219 50.5261 51.5798 50.2903 51.5574 49.9899V33.1232C51.5574 32.7858 51.8309 32.5177 52.1716 32.5177H55.1442C55.4536 32.5316 55.7001 32.7766 55.7226 33.0816V35.2865H55.7809C56.5565 33.1556 58.0136 32.1618 59.9774 32.1618C61.9726 32.1618 63.219 33.1556 64.1157 35.2865C64.8869 33.1556 66.6399 32.1618 68.5185 32.1618C69.8546 32.1618 71.3163 32.7303 72.2085 34.0061C73.2173 35.4251 73.011 37.4867 73.011 39.294L73.0066 49.939C73.0066 50.2765 72.7331 50.5492 72.3923 50.5492H69.209C68.8907 50.5261 68.6351 50.2626 68.6351 49.939V40.9996C68.6351 40.2878 68.6979 38.5128 68.5454 37.8379C68.3078 36.7055 67.5949 36.3866 66.6713 36.3866C65.9002 36.3866 65.0931 36.9181 64.7658 37.7686C64.4385 38.6191 64.4699 40.0428 64.4699 40.9996V49.939C64.4699 50.2765 64.1964 50.5492 63.8557 50.5492H60.6724C60.3496 50.5261 60.0985 50.2626 60.0985 49.939L60.094 40.9996C60.094 39.1183 60.3944 36.3496 58.1302 36.3496C55.8391 36.3496 55.9288 39.049 55.9288 40.9996V49.939C55.9288 50.2765 55.6553 50.5492 55.3146 50.5492" fill="black"/>
<path fill-rule="evenodd" clip-rule="evenodd" d="M114.232 32.1618C118.963 32.1618 121.523 36.3496 121.523 41.6744C121.523 46.819 118.694 50.9005 114.232 50.9005C109.588 50.9005 107.059 46.7127 107.059 41.4942C107.059 36.2433 109.619 32.1618 114.232 32.1618ZM114.259 35.6054C111.91 35.6054 111.762 38.9057 111.762 40.9626C111.762 43.0241 111.731 47.4245 114.232 47.4245C116.703 47.4245 116.819 43.8746 116.819 41.7114C116.819 40.2878 116.761 38.5868 116.344 37.2371C115.986 36.063 115.273 35.6054 114.259 35.6054Z" fill="black"/>
<path fill-rule="evenodd" clip-rule="evenodd" d="M127.656 50.5492H124.482C124.164 50.5261 123.908 50.2626 123.908 49.939L123.904 33.0678C123.93 32.7581 124.195 32.5177 124.518 32.5177H127.472C127.75 32.5316 127.979 32.7257 128.042 32.9892V35.5684H128.1C128.992 33.2619 130.243 32.1618 132.445 32.1618C133.875 32.1618 135.269 32.6934 136.166 34.1494C137 35.4991 137 37.7686 137 39.4003V50.0176C136.964 50.3135 136.7 50.5492 136.386 50.5492H133.189C132.898 50.5261 132.655 50.3042 132.624 50.0176V40.8563C132.624 39.012 132.83 36.3126 130.629 36.3126C129.853 36.3126 129.14 36.8488 128.786 37.6623C128.338 38.6931 128.279 39.7192 128.279 40.8563V49.939C128.275 50.2765 127.997 50.5492 127.656 50.5492" fill="black"/>
<path fill-rule="evenodd" clip-rule="evenodd" d="M85.184 42.4926C85.184 43.773 85.2154 44.8407 84.5877 45.9778C84.0811 46.9022 83.274 47.4708 82.3818 47.4708C81.1578 47.4708 80.4404 46.5093 80.4404 45.0903C80.4404 42.2892 82.875 41.7808 85.184 41.7808V42.4926ZM88.3987 50.503C88.188 50.6971 87.8831 50.711 87.6455 50.5816C86.5873 49.6756 86.3946 49.255 85.8162 48.3906C84.0676 50.2303 82.8257 50.7803 80.5615 50.7803C77.8759 50.7803 75.791 49.0747 75.791 45.6588C75.791 42.9918 77.1899 41.1752 79.1895 40.2878C80.9202 39.502 83.3368 39.3633 85.184 39.1461V38.7208C85.184 37.9396 85.2423 37.0152 84.7939 36.3403C84.4084 35.7348 83.6641 35.4852 83.005 35.4852C81.79 35.4852 80.7094 36.1277 80.4449 37.4589C80.3911 37.7548 80.1804 38.046 79.889 38.0598L76.7998 37.7178C76.5398 37.6577 76.2483 37.4404 76.3246 37.0291C77.033 33.1648 80.4225 32 83.4534 32C85.0047 32 87.0312 32.4253 88.2552 33.6363C89.8065 35.1293 89.6586 37.1215 89.6586 39.2894V44.4108C89.6586 45.95 90.2773 46.6249 90.8601 47.4569C91.0619 47.7527 91.1067 48.1086 90.8467 48.3305C90.1966 48.8898 89.0398 49.9298 88.4032 50.5122L88.3987 50.503" fill="black"/>
<path fill-rule="evenodd" clip-rule="evenodd" d="M43.393 42.4928C43.393 43.7731 43.4244 44.8409 42.7967 45.978C42.29 46.9024 41.4875 47.471 40.5908 47.471C39.3668 47.471 38.6539 46.5095 38.6539 45.0905C38.6539 42.2894 41.0884 41.7809 43.393 41.7809V42.4928ZM46.6077 50.5032C46.3969 50.6973 46.0921 50.7112 45.8544 50.5817C44.7963 49.6758 44.608 49.2551 44.0252 48.3908C42.2766 50.2304 41.0391 50.7805 38.7705 50.7805C36.0893 50.7805 34 49.0749 34 45.659C34 42.992 35.4033 41.1754 37.3985 40.2879C39.1291 39.5022 41.5458 39.3635 43.393 39.1462V38.721C43.393 37.9398 43.4513 37.0154 43.0074 36.3405C42.6173 35.735 41.8731 35.4854 41.2185 35.4854C40.0034 35.4854 38.9184 36.1279 38.6539 37.4591C38.6001 37.7549 38.3894 38.0461 38.1024 38.06L35.0088 37.718C34.7487 37.6579 34.4618 37.4406 34.5335 37.0292C35.2464 33.165 38.6315 32.0002 41.6623 32.0002C43.2136 32.0002 45.2402 32.4255 46.4642 33.6365C48.0155 35.1295 47.8675 37.1217 47.8675 39.2895V44.411C47.8675 45.9502 48.4863 46.6251 49.0691 47.4571C49.2754 47.7529 49.3202 48.1088 49.0602 48.3307C48.41 48.89 47.2533 49.93 46.6166 50.5124L46.6077 50.5031" fill="black"/>
</g>
</g>
<defs>
<filter id="filter0_d_3_1558" x="-40" y="-10" width="250" height="176" filterUnits="userSpaceOnUse" color-interpolation-filters="sRGB">
<feFlood flood-opacity="0" result="BackgroundImageFix"/>
<feColorMatrix in="SourceAlpha" type="matrix" values="0 0 0 0 0 0 0 0 0 0 0 0 0 0 0 0 0 0 127 0" result="hardAlpha"/>
<feOffset dy="30"/>
<feGaussianBlur stdDeviation="20"/>
<feColorMatrix type="matrix" values="0 0 0 0 0.831373 0 0 0 0 0.85098 0 0 0 0 0.909804 0 0 0 0.2 0"/>
<feBlend mode="normal" in2="BackgroundImageFix" result="effect1_dropShadow_3_1558"/>
<feBlend mode="normal" in="SourceGraphic" in2="effect1_dropShadow_3_1558" result="shape"/>
</filter>
<clipPath id="clip0_3_1558">
<rect width="170" height="96" fill="white"/>
</clipPath>
<clipPath id="clip1_3_1558">
<rect width="103" height="32" fill="white" transform="translate(34 32)"/>
</clipPath>
</defs>
</svg>
