<svg width="250" height="176" viewBox="0 0 250 176" fill="none" xmlns="http://www.w3.org/2000/svg">
<g filter="url(#filter0_d_3_1551)">
<rect x="40" y="10" width="170" height="96" rx="16" fill="white"/>
</g>
<g clip-path="url(#clip0_3_1551)">
<path fill-rule="evenodd" clip-rule="evenodd" d="M162.376 56.8409L156.139 67.6752L150.817 67.6965L162.376 47.3039L173.892 67.6965H168.486L162.376 56.8398V56.8409ZM145.581 62.98H151.541L148.774 67.6965H141.006L141.027 61.9537V47.4293H145.603L145.582 62.98H145.581ZM129.235 47.4303C134.918 47.4516 139.516 51.9778 139.495 57.573C139.474 63.1479 134.876 67.6752 129.192 67.6752C123.53 67.654 118.933 63.1277 118.933 57.5315C118.954 51.9566 123.551 47.4303 129.235 47.4303ZM129.214 62.9598C132.257 62.9598 134.704 60.549 134.704 57.573C134.726 54.598 132.257 52.1659 129.235 52.1659C126.212 52.1447 123.743 54.5767 123.743 57.5528C123.722 60.5278 126.191 62.9598 129.213 62.9598H129.214ZM110.461 55.9633C110.398 55.1239 110.184 54.0136 109.865 52.9458C109.208 50.7402 108.066 48.7125 106.524 47.0138C105.714 46.1341 104.8 45.316 103.436 44.3523C102.397 43.8351 101.375 43.283 100.372 42.6969C99.712 42.3197 98.9238 41.8575 97.8816 41.5228C96.6459 41.2287 95.3828 41.0674 94.1133 41.0415C92.8804 40.999 91.6444 41.1053 90.4526 41.3348C89.1965 41.5441 88.1533 41.8788 86.7697 42.2145C83.64 43.5767 81.2142 45.6305 79.1278 48.3558C71.8484 58.6036 78.426 72.9601 90.5801 74.6569C92.5812 74.93 94.5823 74.8248 96.4759 74.3849L97.8173 74.029C97.8595 74.0077 97.9238 73.9865 97.9659 73.9865L99.4991 73.4C99.5834 73.3575 99.6477 73.3362 99.7331 73.2948L100.372 73.0015C101.597 72.3918 102.747 71.6394 103.798 70.7597C102.841 71.6365 101.8 72.4156 100.691 73.0855L100.754 73.128C100.968 73.0642 101.159 73.0015 101.372 72.9601C101.372 72.9601 101.372 73.2948 101.33 73.2321C100.989 73.4839 101.521 73.2533 102.202 72.8963C102.884 72.5404 103.543 72.0995 104.139 71.5969C105.012 70.8638 105.779 70.0669 106.864 68.7685C107.97 66.8188 109.355 65.121 109.994 62.8366C110.206 62.2288 110.397 61.517 110.526 60.7828C110.652 60.0497 110.739 59.2953 110.739 58.5197C110.717 57.744 110.632 56.9472 110.461 55.9633ZM94.7098 73.1907C98.4348 72.6031 101.563 70.5291 104.118 67.6997C104.821 66.6722 105.374 65.7287 106.055 64.7023C106.906 62.606 106.843 60.7413 107.119 59.4217C107.46 57.0311 106.651 55.1037 105.97 53.0499C104.927 50.6603 103.543 48.8796 101.117 47.4962C94.9859 43.6818 86.6422 44.7497 82.6621 50.451C82.641 50.451 82.5335 50.5977 82.3207 50.8909C82.5978 49.7179 83.3007 49.0262 84.0025 48.3547C86.0889 46.6367 88.5158 45.2735 91.2829 44.6041C94.4126 44.2683 97.5191 44.6041 100.307 45.9662C104.48 48.3547 107.247 52.1075 107.949 56.5487V60.6574C107.077 67.3852 101.33 72.499 94.7098 73.1907ZM110.015 57.8907C109.865 48.0413 100.138 41.3975 90.6654 42.7394C87.8983 43.43 84.875 44.8134 82.7253 46.7418C81.6821 47.4325 81.1932 48.7117 80.1499 49.7381C75.977 55.8793 76.702 63.7387 81.895 68.5178C82.5611 69.1818 83.2723 69.7981 84.0236 70.3623C79.6821 67.7411 77.7231 63.779 77.0424 58.9606C77.0424 57.2415 77.3827 55.5436 77.7442 53.8255C80.1721 46.3009 87.8129 40.8312 96.1366 42.2145C97.5202 42.5503 98.9038 42.9062 100.309 43.242C102.055 43.9326 103.778 44.96 105.162 46.3232C106.546 47.6843 107.589 49.4034 108.632 51.1002C109.334 52.4634 109.675 54.1815 110.016 55.5436C110.079 56.3192 110.079 57.1161 110.016 57.8917L110.015 57.8907Z" fill="black"/>
<path fill-rule="evenodd" clip-rule="evenodd" d="M101.373 58.0383C101.373 62.2723 97.8394 65.7095 93.4758 65.7095C89.1132 65.7095 85.5789 62.2723 85.5789 58.0383C85.5789 53.8053 89.1121 50.3681 93.4758 50.3681C97.8394 50.3681 101.373 53.8053 101.373 58.0393V58.0383Z" fill="white"/>
<path fill-rule="evenodd" clip-rule="evenodd" d="M101.416 56.7388C101.309 56.1523 101.139 55.6912 100.969 55.042C100.287 53.6161 99.2871 52.5058 97.9667 51.5623C93.0288 48.2728 86.2384 51.437 85.5155 57.0544C85.2394 59.2761 86.0266 61.4138 87.4312 63.049C87.0055 62.6081 86.5376 62.148 86.2183 61.6231L86.1762 61.6657C86.2183 61.791 86.389 61.875 86.4312 62.0003C86.4312 62.0003 86.2605 62.0003 86.3037 61.9791C86.1762 61.8335 86.2826 62.0641 86.4733 62.3775C86.6441 62.692 86.8569 62.9863 87.1119 63.2583C87.4744 63.6568 87.8569 64.0127 88.4955 64.4951C89.4334 64.9764 90.2627 65.6054 91.3481 65.8986C91.6463 65.9836 91.9866 66.0665 92.3281 66.1292C92.6895 66.193 93.0299 66.2142 93.4134 66.2142C93.7749 66.2142 94.1584 66.1717 94.6263 66.0867C95.1088 66.0294 95.5857 65.9317 96.0521 65.7945C97.0938 65.4784 98.0534 64.9342 98.8624 64.2008C99.2671 63.8246 99.8424 63.3423 100.288 62.7133C100.651 62.0014 100.693 61.6444 100.864 61.3299C101.033 61.0154 101.246 60.6595 101.396 60.1771C101.518 59.6048 101.589 59.0228 101.609 58.4378C101.587 57.8513 101.545 57.285 101.417 56.7399L101.416 56.7388ZM96.3492 52.8416C97.0732 53.2602 97.1796 53.3229 96.796 53.0509C97.3503 53.1763 97.6907 53.4908 98.031 53.8053C98.8614 54.7488 99.5421 55.8591 99.8825 57.1373C100.074 58.5833 99.9246 60.0294 99.3082 61.3087C98.2017 63.2573 96.4346 64.5567 94.327 64.9127C94.0931 64.9127 93.8381 64.9126 93.6031 64.9339C94.1995 64.8287 94.5831 64.4515 95.6685 64.0531C96.8382 63.6345 98.1585 61.6858 98.7982 60.5532C100.671 57.472 98.4567 54.6223 96.3492 52.8416ZM92.3481 64.9541C89.113 64.6194 86.6219 61.9578 86.2816 58.8766C86.5787 60.5957 87.6009 61.9153 88.9845 63.0894C89.4745 63.4039 90.1973 63.8438 90.6873 64.1583C91.5177 64.4728 92.0067 64.8085 92.816 64.9551H92.3481V64.9541ZM101.053 59.359C100.906 60.0092 100.756 60.6371 100.606 61.2874C100.287 62.0843 99.8193 62.9013 99.1807 63.5505C98.5421 64.2008 97.7328 64.7033 96.9246 65.1857C96.286 65.5204 95.4767 65.6883 94.817 65.8551C94.4335 65.8976 93.9867 65.7297 93.6031 65.7095C98.3292 65.5831 101.564 61.162 100.862 56.7813C100.521 55.5031 99.8403 54.3918 99.01 53.2815C98.6696 52.7991 98.0089 52.5058 97.52 52.0235C94.561 50.1588 90.6452 50.536 88.4102 52.9882C88.0968 53.3105 87.8049 53.6533 87.5366 54.0146C88.7295 52.254 90.6452 51.0183 92.9435 50.6613C93.7527 50.6401 94.5831 50.7878 95.3914 50.9344C98.9678 52.0235 101.629 55.5031 101.053 59.36V59.359Z" fill="#D7DF23"/>
</g>
<defs>
<filter id="filter0_d_3_1551" x="0" y="0" width="250" height="176" filterUnits="userSpaceOnUse" color-interpolation-filters="sRGB">
<feFlood flood-opacity="0" result="BackgroundImageFix"/>
<feColorMatrix in="SourceAlpha" type="matrix" values="0 0 0 0 0 0 0 0 0 0 0 0 0 0 0 0 0 0 127 0" result="hardAlpha"/>
<feOffset dy="30"/>
<feGaussianBlur stdDeviation="20"/>
<feColorMatrix type="matrix" values="0 0 0 0 0.831373 0 0 0 0 0.85098 0 0 0 0 0.909804 0 0 0 0.2 0"/>
<feBlend mode="normal" in2="BackgroundImageFix" result="effect1_dropShadow_3_1551"/>
<feBlend mode="normal" in="SourceGraphic" in2="effect1_dropShadow_3_1551" result="shape"/>
</filter>
<clipPath id="clip0_3_1551">
<rect width="98" height="34" fill="white" transform="translate(76 41)"/>
</clipPath>
</defs>
</svg>
