<svg width="75" height="70" viewBox="0 0 75 70" fill="none" xmlns="http://www.w3.org/2000/svg">
<circle cx="52.5" cy="22.5" r="22.5" fill="#FF5353"/>
<path d="M30 40V11.5" stroke="black" stroke-width="2" stroke-linecap="round" stroke-linejoin="round"/>
<path d="M54.6818 25.75L5.31836 54.25" stroke="black" stroke-width="2" stroke-linecap="round" stroke-linejoin="round"/>
<path d="M1.97525 45.2103C0.7413 38.5324 1.92852 31.6334 5.32372 25.7521C8.71891 19.8709 14.0996 15.3927 20.4996 13.1218V34.5153L1.97525 45.2103Z" stroke="black" stroke-width="2" stroke-linecap="round" stroke-linejoin="round"/>
<path d="M29.9999 11.5C34.9931 11.5009 39.8985 12.8137 44.2248 15.3068C48.5511 17.8 52.1464 21.386 54.6508 25.7058C57.1552 30.0256 58.4806 34.9276 58.4945 39.9208C58.5084 44.9141 57.2102 49.8233 54.7298 54.157C52.2495 58.4906 48.6741 62.0966 44.3618 64.6137C40.0494 67.1309 35.1514 68.4709 30.1582 68.4995C25.1651 68.5282 20.252 67.2445 15.911 64.777C11.57 62.3096 7.9535 58.7449 5.42358 54.44" stroke="black" stroke-width="2" stroke-linecap="round" stroke-linejoin="round"/>
</svg>
