<svg width="50" height="73" viewBox="0 0 50 73" fill="none" xmlns="http://www.w3.org/2000/svg">
<circle cx="27.5" cy="22.5" r="22.5" fill="#FFBA53"/>
<path d="M28.3984 53.3984C33.3129 53.3984 37.2969 49.4145 37.2969 44.5C37.2969 39.5855 33.3129 35.6016 28.3984 35.6016C23.484 35.6016 19.5 39.5855 19.5 44.5C19.5 49.4145 23.484 53.3984 28.3984 53.3984Z" stroke="black" stroke-width="2" stroke-linecap="round" stroke-linejoin="round"/>
<path d="M19.5 35.6016V17.8049H10.6016C8.24155 17.8049 5.9782 18.7424 4.30942 20.4112C2.64064 22.08 1.70312 24.3434 1.70312 26.7034C1.70312 29.0634 2.64064 31.3267 4.30942 32.9955C5.9782 34.6643 8.24155 35.6018 10.6016 35.6018L19.5 35.6016Z" stroke="black" stroke-width="2" stroke-linecap="round" stroke-linejoin="round"/>
<path d="M19.5 53.3982V35.6016H10.6016C8.24155 35.6016 5.9782 36.5391 4.30942 38.2079C2.64064 39.8766 1.70313 42.14 1.70312 44.5C1.70313 46.86 2.64064 49.1234 4.30942 50.7921C5.9782 52.4609 8.24155 53.3984 10.6016 53.3984L19.5 53.3982Z" stroke="black" stroke-width="2" stroke-linecap="round" stroke-linejoin="round"/>
<path d="M19.5 35.6016V17.8049H28.3984C30.7584 17.8049 33.0218 18.7424 34.6906 20.4112C36.3594 22.08 37.2969 24.3434 37.2969 26.7034C37.2969 29.0634 36.3594 31.3267 34.6906 32.9955C33.0218 34.6643 30.7584 35.6018 28.3984 35.6018L19.5 35.6016Z" stroke="black" stroke-width="2" stroke-linecap="round" stroke-linejoin="round"/>
<path d="M19.5 53.3982V62.2967C19.5 64.0567 18.9782 65.7771 18.0004 67.2405C17.0226 68.7038 15.6329 69.8444 14.0069 70.5179C12.381 71.1914 10.5918 71.3677 8.86564 71.0243C7.1395 70.681 5.55394 69.8335 4.30946 68.5891C3.06498 67.3446 2.21748 65.759 1.87412 64.0329C1.53076 62.3068 1.70697 60.5176 2.38047 58.8916C3.05397 57.2656 4.1945 55.8759 5.65785 54.8981C7.12119 53.9203 8.84162 53.3984 10.6016 53.3984L19.5 53.3982Z" stroke="black" stroke-width="2" stroke-linecap="round" stroke-linejoin="round"/>
</svg>
